HIERARCHY
ROOT Hips
{
    OFFSET 0.0 0.0 0.0
    CHANNELS 6 Xposition Yposition Zposition Zrotation Xrotation Yrotation
    JOINT LeftHipJoint
    {
        OFFSET 0.1 0.0 0.0
        CHANNELS 3 Zrotation Xrotation Yrotation
        JOINT LeftUpLeg
        {
            OFFSET 0.11037390898122382 0.0 0.0
            CHANNELS 3 Zrotation Xrotation Yrotation
            JOINT LeftLeg
            {
                OFFSET 0.0 0.0 -0.35388839074159595
                CHANNELS 3 Zrotation Xrotation Yrotation
                JOINT LeftFoot
                {
                    OFFSET 0.0 0.0 -0.30072336877539163
                    CHANNELS 3 Zrotation Xrotation Yrotation
                    End Site
                    {
                        OFFSET 0.0 -0.1 0.0
                    }
                }
            }
        }
    }
    JOINT LowerBack
    {
        OFFSET 0.0 0.0 0.1
        CHANNELS 3 Zrotation Xrotation Yrotation
        JOINT Spine
        {
            OFFSET 0.0 0.0 0.24380273962262938
            CHANNELS 3 Zrotation Xrotation Yrotation
            JOINT Spine1
            {
                OFFSET 0.0 0.0 0.24417742726865238
                CHANNELS 3 Zrotation Xrotation Yrotation
                JOINT LeftShoulder
                {
                    OFFSET 0.1 0.0 0.0
                    CHANNELS 3 Zrotation Xrotation Yrotation
                    JOINT LeftArm
                    {
                        OFFSET 0.16200838575067203 0.0 0.0
                        CHANNELS 3 Zrotation Xrotation Yrotation
                        JOINT LeftForeArm
                        {
                            OFFSET 0.21935025079064097 0.0 0.0
                            CHANNELS 3 Zrotation Xrotation Yrotation
                            JOINT LeftHand
                            {
                                OFFSET 0.19009406108369253 0.0 0.0
                                CHANNELS 3 Zrotation Xrotation Yrotation
                                End Site
                                {
                                    OFFSET 0.1 0.0 0.0
                                }
                            }
                        }
                    }
                }
                JOINT Neck
                {
                    OFFSET 0.0 0.0 0.1
                    CHANNELS 3 Zrotation Xrotation Yrotation
                    JOINT Neck1
                    {
                        OFFSET 0.0 0.0 0.15324578332511438
                        CHANNELS 3 Zrotation Xrotation Yrotation
                        End Site
                        {
                            OFFSET 0.0 0.0 0.1483978458247319
                        }
                    }
                }
                JOINT RightShoulder
                {
                    OFFSET -0.1 0.0 0.0
                    CHANNELS 3 Zrotation Xrotation Yrotation
                    JOINT RightArm
                    {
                        OFFSET -0.16200838575067203 0.0 0.0
                        CHANNELS 3 Zrotation Xrotation Yrotation
                        JOINT RightForeArm
                        {
                            OFFSET -0.21935025079064097 0.0 0.0
                            CHANNELS 3 Zrotation Xrotation Yrotation
                            JOINT RightHand
                            {
                                OFFSET -0.19009406108369253 0.0 0.0
                                CHANNELS 3 Zrotation Xrotation Yrotation
                                End Site
                                {
                                    OFFSET -0.1 0.0 0.0
                                }
                            }
                        }
                    }
                }
            }
        }
    }
    JOINT RightHipJoint
    {
        OFFSET -0.1 0.0 0.0
        CHANNELS 3 Zrotation Xrotation Yrotation
        JOINT RightUpLeg
        {
            OFFSET -0.11037390898122382 0.0 0.0
            CHANNELS 3 Zrotation Xrotation Yrotation
            JOINT RightLeg
            {
                OFFSET 0.0 0.0 -0.35388839074159595
                CHANNELS 3 Zrotation Xrotation Yrotation
                JOINT RightFoot
                {
                    OFFSET 0.0 0.0 -0.30072336877539163
                    CHANNELS 3 Zrotation Xrotation Yrotation
                    End Site
                    {
                        OFFSET 0.0 -0.1 0.0
                    }
                }
            }
        }
    }
}
MOTION
Frames: 4
Frame Time: 0.03333333333333333
-0.0368175283074379 -0.22417698800563812 -2.745376308035993e-17 -38.34386431622442 -76.59289247600118 -43.54351858265549 7.951386703658792e-16 0.0 0.0 -1.7027231259873976 -9.830303218227591 2.7417179214964946 -0.19824333951406448 21.570155010828643 -1.6466022636014168 0.0 0.0 0.0 7.951386703658792e-16 0.0 0.0 -0.011134513251112588 1.48080812211111 -0.7516533825818967 9.663663532847556 1.8511041645511205e-15 1.8384589709711924e-15 0.0 0.0 0.0 -11.854736432701946 12.769104050868938 64.17783676679096 -41.24760523664643 -2.6247182649677534e-15 1.600390527826916e-14 0.0 0.0 0.0 0.0 0.0 0.0 -5.4606540000520765 3.219751404315188 3.5564660007248827 0.0 0.0 0.0 2.069127287549543 -0.3898999666236291 -57.93106514649333 25.284808306345045 1.3805996213413163e-14 3.4224304508362606e-15 -1.7655625192200634e-31 3.1805546814635168e-15 6.3611093629270335e-15 7.951386703658792e-16 0.0 0.0 1.9513574381523422 -6.5182007037641325 -3.2393954654147974 -0.3669778195201155 21.26989305900818 -1.7420831748695322 -3.975693351829396e-16 -1.3793457181406746e-33 3.975693351829396e-16
-0.035646483302116394 -0.2360706329345703 0.003282036166638107 -39.10932212781355 -76.11700123467361 -43.792670390695704 0.0 0.0 0.0 -0.40649777550217775 -11.725957372810733 1.8790420485298067 -0.37761016323590346 25.788290000273598 -1.044109801020837 0.0 0.0 0.0 0.0 0.0 0.0 0.0028058139202526426 3.691443435480911 -0.5886469986200543 9.649583334906513 -2.508165386036224e-15 1.0096757148402754e-15 0.0 0.0 3.975693351829396e-16 0.07058148533089173 13.778086048927802 63.03616200674 -59.48263198689977 -1.1834486685480253e-14 7.890721546650883e-15 0.0 0.0 -6.3611093629270335e-15 0.0 0.0 3.975693351829396e-16 -3.6692210032477353 0.678983422115295 3.534933089323429 0.0 0.0 3.975693351829396e-16 -7.734925169155941 -5.3248349408996 -55.651790292476505 34.370445568784454 -2.1990273116743665e-14 -6.515838280954699e-15 3.1805546814635168e-15 -1.7655625192200634e-31 -6.3611093629270335e-15 0.0 0.0 0.0 0.5468011181463176 -8.22413695353998 -3.891842648602476 -0.5594091287323033 24.51879248095805 -0.9934150640491793 -1.987846675914698e-16 -6.896728590703373e-34 3.975693351829396e-16
-0.03393352031707764 -0.2520598769187927 0.004267333541065423 -38.3689442402069 -75.24421746274504 -42.59587369759341 -1.5902773407317588e-15 -6.361109362927035e-15 -1.9878466759146984e-15 -0.3669862223182693 -14.503442433437469 0.6224196430970863 -0.8630586341748011 30.375114139924126 0.3605391005210379 -6.672584911505513e-32 6.410805529824901e-15 1.1927080055488188e-15 -1.5902773407317588e-15 -6.361109362927035e-15 -1.9878466759146984e-15 0.04421280526582172 5.517455331797638 -0.25536470237162323 9.328184149668303 4.192982323110405e-15 5.68097613921605e-17 0.0 0.0 0.0 8.910952338158951 14.828148449191625 61.18487862585169 -77.1794594525513 1.3911772128434957e-14 2.963301854703672e-15 0.0 0.0 0.0 0.0 0.0 0.0 -0.3847868748214503 -2.363142271891012 3.508580713343392 0.0 0.0 0.0 -16.1742863698264 -11.743039471732718 -52.68464332711432 46.10648230684412 1.1270603309057099e-14 2.1167347762543554e-15 0.0 0.0 0.0 -1.5902773407317588e-15 -6.361109362927035e-15 -1.9878466759146984e-15 0.3117108781253193 -11.036193478120563 -4.297403465228464 -0.7208034085048428 28.32430194045064 -0.8594984109735125 3.975693351829396e-16 -3.4483642953516864e-34 -9.93923337957349e-17
-0.031992629170417786 -0.2715515196323395 0.005137346684932676 -37.64479819095808 -74.2848039347284 -41.42973773454209 -8.827812596100317e-32 6.361109362927033e-15 1.5902773407317582e-15 -0.3483190322704012 -17.434572871581913 -0.4649574912635253 -1.3749544333758157 34.46827462660655 1.2247206709764349 -3.975693351829396e-16 0.0 0.0 -8.827812596100317e-32 6.361109362927033e-15 1.5902773407317582e-15 0.116737050420627 7.410903066266921 -0.10822059480513153 8.063778955601864 1.0792974700848963e-14 -9.600329021397679e-16 2.2069531490250793e-32 6.3611093629270335e-15 -3.975693351829396e-16 17.468191454035594 15.039229081439885 57.52408359844335 -91.90697965468036 -1.7989442973195908e-14 -2.993996176954374e-16 0.0 0.0 0.0 2.2069531490250793e-32 6.3611093629270335e-15 -3.975693351829396e-16 1.2123335423187998 -5.341558823984462 3.8454152104864314 2.2069531490250793e-32 6.3611093629270335e-15 -3.975693351829396e-16 -22.201156268407406 -20.549694763895175 -49.418826145037386 57.382660861116214 2.5261749492312985e-15 -8.63399471740122e-15 0.0 0.0 -6.3611093629270335e-15 -8.827812596100317e-32 6.361109362927033e-15 1.5902773407317582e-15 -0.02481701352286371 -14.337256356398777 -4.700748675686935 -0.8435581063298409 32.19913979322563 -0.5070890484147565 1.9878466759146985e-16 -6.3611093629270335e-15 6.957463365701443e-16
